<?xml version="1.0"?>
<svg width="640" height="480" xmlns="http://www.w3.org/2000/svg" xmlns:svg="http://www.w3.org/2000/svg">
 <!-- Created with SVG-edit - https://github.com/SVG-Edit/svgedit-->
 <g class="layer">
  <title>Layer 1</title>
  <rect fill="#ccf9f9" height="310.999998" id="svg_1" stroke="#000000" stroke-width="5" width="522" x="69.5" y="78.899998"/>
  <text fill="#000000" font-family="serif" font-size="24" id="svg_2" stroke="#000000" stroke-dasharray="null" stroke-linecap="null" stroke-linejoin="null" stroke-width="0" text-anchor="middle" transform="matrix(10.8209, 0, 0, 8.22915, -1243.88, -634.178)" x="146.130345" xml:space="preserve" y="107.983533">DM</text>
  <polygon cx="189.5" cy="324.899994" fill="#7fff00" id="svg_3" orient="point" point="5" points="189.5,277.19721037648884 200.7155970585415,309.46304887781815 234.8680431121088,310.1590231098166 207.64721724484352,330.79638221115147 217.5389926463538,363.4923564431499 189.5,343.9811073044826 161.4610073536462,363.4923564431499 171.35278275515648,330.79638221115147 144.1319568878912,310.1590231098166 178.2844029414585,309.46304887781815 189.5,277.19721037648884 200.7155970585415,309.46304887781815 " r="47.702784" r2="19.081113" shape="star" stroke="#000000" stroke-width="0" strokeWidth="0" strokecolor="#000000"/>
  <polygon cx="190.5" cy="313.899994" fill="#00ff00" id="svg_4" orient="point" point="5" r="0" r2="0" shape="star" strokeWidth="0" strokecolor="#000000"/>
  <polygon cx="196.5" cy="334.899994" fill="#00ff00" id="svg_5" orient="point" point="5" r="0" r2="0" shape="star" strokeWidth="0" strokecolor="none"/>
  <polygon cx="196.5" cy="334.899994" fill="#00ff00" id="svg_6" orient="point" point="5" r="0" r2="0" shape="star" strokeWidth="0" strokecolor="none"/>
  <polygon cx="189.5" cy="324.899994" fill="#7fff00" id="svg_12" orient="point" point="5" points="339.20001220703125,278.55242919921875 350.41558837890625,310.8182373046875 384.56805419921875,311.51422119140625 357.34722900390625,332.151611328125 367.2389831542969,364.84759521484375 339.20001220703125,345.3363037109375 311.1610107421875,364.84759521484375 321.05279541015625,332.151611328125 293.83197021484375,311.51422119140625 327.9844055175781,310.8182373046875 339.20001220703125,278.55242919921875 350.41558837890625,310.8182373046875 " r="47.702784" r2="19.081113" shape="star" stroke="#000000" stroke-width="0" strokeWidth="0" strokecolor="#000000"/>
  <polygon cx="189.5" cy="324.899994" fill="#7fff00" id="svg_13" orient="point" point="5" points="475.20001220703125,276.55242919921875 486.41558837890625,308.8182373046875 520.5680541992188,309.51422119140625 493.34722900390625,330.151611328125 503.2389831542969,362.84759521484375 475.20001220703125,343.3363037109375 447.1610107421875,362.84759521484375 457.05279541015625,330.151611328125 429.83197021484375,309.51422119140625 463.9844055175781,308.8182373046875 475.20001220703125,276.55242919921875 486.41558837890625,308.8182373046875 " r="47.702784" r2="19.081113" shape="star" stroke="#000000" stroke-width="0" strokeWidth="0" strokecolor="#000000"/>
  <polygon cx="170.5" cy="300.899994" fill="none" id="svg_15" orient="point" point="5" points="194.999755859375,358.2329406738281 186.38059997558594,336.2495422363281 160.1337890625,335.77642822265625 181.05320739746094,321.7154541015625 173.45103454589844,299.4389343261719 194.999755859375,312.73223876953125 216.54849243164062,299.4389343261719 208.94631958007812,321.7154541015625 229.86572265625,335.77642822265625 203.61891174316406,336.2495422363281 194.999755859375,358.2329406738281 186.38059997558594,336.2495422363281 " r="0.666667" r2="0.266667" shape="star" stroke="#000000" stroke-width="0" strokeWidth="0" strokecolor="#000000"/>
 </g>
</svg>